<svg id="Layer_1" data-name="Layer 1" xmlns="http://www.w3.org/2000/svg" viewBox="0 0 1099.64 460.63"><defs><style>.cls-1{fill:#494b4c;}.cls-1,.cls-2{stroke:#000;stroke-miterlimit:10;}.cls-2,.cls-7{fill:none;}.cls-3{fill:#894ea0;}.cls-4{fill:#4944a2;}.cls-5{fill:#4dbe46;}.cls-6{fill:#dc342b;}.cls-10,.cls-11,.cls-8,.cls-9{isolation:isolate;}.cls-8{font-size:109.36px;fill:#edeeef;font-family:ComicSansMS-Bold, Comic Sans MS;font-weight:700;letter-spacing:0.05em;}.cls-10{font-size:70.3px;letter-spacing:0.01em;}.cls-10,.cls-11{font-family:ArialMT, Arial;}.cls-11{font-size:48px;fill:#f4d706;letter-spacing:0.02em;}</style></defs><path class="cls-1" d="M463.93,791.51c139.42-19,103.4,155.67,103.4,155.67-16.68,90.75-72.7,83.24-72.7,83.24,86.44,8.88,92.55-90.63,92.55-90.63L613.52,935l-4-4.81s-17.08-23.28-19.88-37c-.6-3-.78-5.82-1.44-10.46-.92-6.49-2.24-12-3.46-18-5.24-25.9-14.27-43.56-14.27-43.56-31.26-64.09-111.39-47-111.39-47C348,798.68,389.44,906.54,389.44,906.54c-10.85-87.9,42.62-106.91,42.62-106.91S442.2,794.46,463.93,791.51Z" transform="translate(-177.44 -771.53)"/><path class="cls-2" d="M487.91,753.69" transform="translate(-177.44 -771.53)"/><path class="cls-3" d="M467.5,858.59c-3.37-27.17,1.67-52.85,1.67-52.85-65.31,2.08-70.41,66.74-70.41,66.74s16.64-12.52,68-13.89Z" transform="translate(-177.44 -771.53)"/><path class="cls-2" d="M471.8,806.63" transform="translate(-177.44 -771.53)"/><path class="cls-2" d="M548.64,856.05" transform="translate(-177.44 -771.53)"/><path class="cls-4" d="M484.93,924a217.34,217.34,0,0,1-40.35-1.31c-1.78,24.79,19.14,45.47,19.14,45.47-65.44-27.08-65-89.69-65-89.69.18,0,18.38-13.19,69.23-14.49,0,0,2.08,35.78,18.76,59.76Z" transform="translate(-177.44 -771.53)"/><path class="cls-5" d="M473.17,858.63c47.51-1.11,75.48,1.38,75.48,1.38-13.54-58.44-73.84-54.27-73.84-54.27s-5,25.62-1.65,52.79Z" transform="translate(-177.44 -771.53)"/><path class="cls-6" d="M549,865.63s-27.76-2.48-75.48-1.38c0,0,2.54,34.44,19.21,58.42C492.73,922.66,539.61,918,549,865.63Z" transform="translate(-177.44 -771.53)"/><polygon class="cls-7" points="1099.64 161.96 413.89 161.96 413.89 61.32 1093.03 61.32 1099.64 161.96"/><text class="cls-8" transform="translate(0 369.13) scale(0.98 1)"><tspan xml:space="preserve"> TechTalks </tspan></text><polygon class="cls-7" points="1029.96 210.36 515.85 215.76 515.85 151.13 1035.23 151.13 1029.96 210.36"/><g class="cls-9"><text class="cls-10" transform="translate(47.6 437.81) scale(0.98 1)"><tspan xml:space="preserve">      </tspan></text><text class="cls-11" transform="translate(145.12 437.81) scale(0.98 1)">Discuss &amp; learn</text></g></svg>