<svg id="Layer_1" data-name="Layer 1" xmlns="http://www.w3.org/2000/svg" viewBox="0 0 895.68 259.97"><defs><style>.cls-1{fill:#494b4c;}.cls-1,.cls-2{stroke:#000;stroke-miterlimit:10;}.cls-2{fill:none;}.cls-3{fill:#894ea0;}.cls-4{fill:#4944a2;}.cls-5{fill:#4dbe46;}.cls-6{fill:#dc342b;}.cls-7{font-size:109.36px;fill:#edeeef;font-family:ComicSansMS-Bold, Comic Sans MS;font-weight:700;letter-spacing:0.05em;}.cls-8{font-size:70.3px;font-family:MyriadPro-Regular, Myriad Pro;letter-spacing:0.02em;}.cls-10,.cls-11,.cls-9{fill:#f4d706;font-size:48px;}.cls-9{letter-spacing:0.02em;}.cls-10{letter-spacing:0.03em;}.cls-11{letter-spacing:0.03em;}</style></defs><path class="cls-1" d="M463.93,791.51c139.41-19,103.4,155.67,103.4,155.67-16.68,90.76-72.7,83.24-72.7,83.24,86.44,8.87,92.55-90.64,92.55-90.64L613.52,935l-4-4.81s-17.08-23.27-19.87-37c-.6-3-.79-5.82-1.45-10.46-.91-6.49-2.24-12-3.45-18-5.24-25.9-14.27-43.56-14.27-43.56-31.26-64.09-111.39-47-111.39-47C348,798.66,389.45,906.52,389.45,906.52c-10.84-87.9,42.62-106.91,42.62-106.91S442.2,794.46,463.93,791.51Z" transform="translate(-381.39 -771.51)"/><path class="cls-2" d="M487.91,753.69" transform="translate(-381.39 -771.51)"/><path class="cls-3" d="M467.5,858.59c-3.36-27.16,1.67-52.84,1.67-52.84-65.3,2.08-70.41,66.74-70.41,66.74s16.64-12.52,68-13.9Z" transform="translate(-381.39 -771.51)"/><path class="cls-2" d="M471.8,806.63" transform="translate(-381.39 -771.51)"/><path class="cls-2" d="M548.64,856.05" transform="translate(-381.39 -771.51)"/><path class="cls-4" d="M484.93,924a216.79,216.79,0,0,1-40.35-1.32c-1.78,24.79,19.14,45.48,19.14,45.48-65.44-27.08-65-89.69-65-89.69.18,0,18.38-13.19,69.23-14.49,0,0,2.08,35.79,18.76,59.77Z" transform="translate(-381.39 -771.51)"/><path class="cls-5" d="M473.17,858.63c47.5-1.11,75.47,1.38,75.47,1.38-13.54-58.44-73.83-54.26-73.83-54.26s-5,25.62-1.65,52.78Z" transform="translate(-381.39 -771.51)"/><path class="cls-6" d="M549,865.63s-27.76-2.48-75.48-1.39c0,0,2.54,34.45,19.22,58.42C492.73,922.66,539.61,918,549,865.63Z" transform="translate(-381.39 -771.51)"/><text class="cls-7" transform="translate(209.93 146.42) scale(0.98 1)"><tspan xml:space="preserve"> TechTalks </tspan></text><text class="cls-8" transform="translate(311.89 201.07) scale(0.98 1)"><tspan xml:space="preserve">      </tspan><tspan class="cls-9" x="99.97" y="0">Discuss &amp; lea</tspan><tspan class="cls-10" x="371.65" y="0">r</tspan><tspan class="cls-11" x="388.73" y="0">n</tspan></text></svg>